<svg xmlns="http://www.w3.org/2000/svg" xmlns:xlink="http://www.w3.org/1999/xlink" viewBox="0 0 64 64"><defs><style>.cls-1{fill:url(#linear-gradient);}.cls-2{fill:url(#linear-gradient-2);}.cls-3{fill:url(#linear-gradient-3);}.cls-4{opacity:0.48;}</style><linearGradient id="linear-gradient" x1="3.15" y1="43.73" x2="37.31" y2="43.73" gradientUnits="userSpaceOnUse"><stop offset="0" stop-color="#edd06d"/><stop offset="0.35" stop-color="#e0b858"/><stop offset="1" stop-color="#c2822a"/></linearGradient><linearGradient id="linear-gradient-2" x1="43.02" y1="16" x2="53.06" y2="16" xlink:href="#linear-gradient"/><linearGradient id="linear-gradient-3" x1="19.64" y1="23.83" x2="60.7" y2="23.83" gradientUnits="userSpaceOnUse"><stop offset="0" stop-color="#141c2c"/><stop offset="0.84" stop-color="#090d14"/><stop offset="1" stop-color="#070a0f"/></linearGradient></defs><g id="Layer_12" data-name="Layer 12"><path class="cls-1" d="M35.9,31.81l-3.78-3.6A1,1,0,0,0,30.58,27L4.49,53.08a4.46,4.46,0,0,0-1.33,3.31c0,4.07,5.17,5.85,7.92,3L37,33.42A1,1,0,0,0,35.9,31.81Z"/><path class="cls-2" d="M51.88,12.41a4.74,4.74,0,0,0-6.73,0l-1.83,1.82a1,1,0,1,0,1.61,1.23c1,1,2.58,2.68,3.56,3.65a1,1,0,1,0,1.27,1.56l2-2A4.59,4.59,0,0,0,51.88,12.41Z"/><path class="cls-3" d="M59.61,29.11,34.89,4.39a3.69,3.69,0,0,0-5.23,0l-8.94,8.93a3.71,3.71,0,0,0,0,5.23L45.45,43.28a3.71,3.71,0,0,0,5.23,0l8.93-8.94A3.69,3.69,0,0,0,59.61,29.11Z"/><path class="cls-4" d="M59.61,29.11,50.47,20c1.27-1.19,2.68-2.59,2.6-4.49,0-4.15-5.12-5.93-7.92-3.06L44,13.53,34.89,4.39a3.69,3.69,0,0,0-5.23,0l-8.94,8.93a3.71,3.71,0,0,0,0,5.23l9.15,9.15L4.49,53.08a4.57,4.57,0,0,0,.14,6.57,4.71,4.71,0,0,0,6.45-.3L36.3,34.13l9.15,9.15a3.71,3.71,0,0,0,5.23,0l8.93-8.94A3.69,3.69,0,0,0,59.61,29.11Zm-13-15.28a2.55,2.55,0,1,1,3.76,3.45l-1.27,1.27L45.45,15ZM9.67,57.94A2.56,2.56,0,1,1,5.9,54.49L31.29,29.11l3.6,3.6Zm48.53-25-8.93,8.93a1.7,1.7,0,0,1-2.4,0L37,32a0,0,0,0,0,0,0l-5-5a0,0,0,0,0,0,0l-9.84-9.85a1.7,1.7,0,0,1,0-2.4L31.07,5.8a1.7,1.7,0,0,1,2.4,0l9.84,9.83a.08.08,0,0,0,0,0l5,5,0,0,9.83,9.84A1.7,1.7,0,0,1,58.2,32.93Z"/></g></svg>